<svg xmlns="http://www.w3.org/2000/svg" viewBox="0 0 1070 1559.76">
  <defs>
    <style>
      .cls-1{fill:#e01500}
    </style>
  </defs>
  <g id="Layer_2" data-name="Layer 2">
    <g id="Layer_1-2" data-name="Layer 1">
      <path class="cls-1" d="M685.69 1277.54v62.57h-4.44q-75.39 0-150.78.07a57 57 0 0 0-14.44 1.59c-14.83 4-21.23 20.09-13.9 33.8 4.38 8.19 12 11.78 21.34 12.82a112.58 112.58 0 0 0 11.76.66c22.39.06 44.78-.06 67.17.07 19.66.12 38.9 2.33 57 10 25.35 10.75 39.79 29 44.48 53.89 3.9 20.67 2.94 41.06-5.84 60.65-9.91 22.08-28.91 34.73-53.28 41.4a130.87 130.87 0 0 1-34.18 4.5q-86.28.21-172.57.1c-.59 0-1.18-.06-2.06-.11V1497H605.19a62.58 62.58 0 0 0 11.71-.88c17.52-3.36 25.74-20.72 17.34-36-4.56-8.29-12.18-12.23-21.84-13.35a108.66 108.66 0 0 0-12.1-.7c-21.32-.07-42.64 0-64 0-17.69-.06-35.21-1.38-52-7.13-23.11-7.93-40.68-21.3-48.48-43.36s-8-44.39-.28-66.49c8.71-24.85 28.09-39.68 54.94-47a135.86 135.86 0 0 1 35.25-4.52q78.6-.18 157.2-.08c.91-.11 1.73-.02 2.76.05ZM189.56 1559.54h-69.37v-281.9h69.17v112.54c1.6.07 2.76.17 3.92.16 15-.17 30-.27 45-.59a74.85 74.85 0 0 0 12-1.43c8.75-1.64 15.71-5.92 19.76-13.25 6.48-11.74 12.65-23.63 18.74-35.55 10.12-19.8 20.08-39.67 30.09-59.51.76-1.51 1.35-2.71 3.76-2.7 23.22.11 46.45.07 69.68.08.45 0 .9.09 1.69.18-.44 1-.76 1.92-1.19 2.77-15.39 30.4-30.68 60.83-46.23 91.16-7.33 14.31-16.39 27.58-30.88 36.93-4 2.57-8.2 4.81-12.49 7.3a5.68 5.68 0 0 0 1.26.79c16.68 5.43 29.3 15.53 37.79 29.43 8.91 14.61 17 29.65 24.94 44.73 11.4 21.65 22.32 43.51 33.45 65.29.54 1.06 1.06 2.14 1.75 3.55-1.43.06-2.55.16-3.67.16-23 0-46-.06-69 .08-2.89 0-4.1-.91-5.25-3.16q-20.59-40.33-41.42-80.6c-1.78-3.44-3.79-6.77-5.75-10.13-6.1-10.48-15.95-16.2-28.58-17.16-13.38-1-26.85-1.1-40.29-1.46-6.17-.16-12.36 0-18.93 0ZM760.52 1559.48V1556c0-35.5-.1-71 .09-106.49a99.74 99.74 0 0 1 2-20.1c4.32-20.32 17.08-31.28 39.6-34.31a155.53 155.53 0 0 1 19.9-1.34c31.8-.14 63.59 0 95.39-.1a54.65 54.65 0 0 0 10.63-.92 25.08 25.08 0 0 0 20.21-23.65 34.08 34.08 0 0 0-.94-10.36c-3-11.53-12.26-18.19-25.55-18.51-8.45-.2-16.91-.08-25.36-.08H760.23v-62.46a25.76 25.76 0 0 1 2.66-.26c53 0 106-.1 159 .1 16.32.07 32.17 2.82 47 9.39 22.37 9.87 37.24 25.58 44.13 47.44 7.1 22.48 6.34 44.94-2.75 66.68-12.64 30.21-38 46.43-72.29 51.42a166.12 166.12 0 0 1-22.77 1.36c-24.77.17-49.54.06-74.31.07-8.67 0-10.93 2.06-10.93 10.1v95.53ZM895.67 940.61h22c0-12.16 5-23.9-5.16-36.42-15.9 9.08-26.1 17.93-16.84 36.42ZM896.43 900.05a1.15 1.15 0 0 0-.06-.17 10.75 10.75 0 0 1-.24-1.87.76.76 0 0 1 0-.15c.07-.55.14-1.1.22-1.65a1.38 1.38 0 0 1 .08-.27c.2-.49.41-1 .62-1.48a.54.54 0 0 1 .07-.13 7.74 7.74 0 0 1 1.84-2.1 21.9 21.9 0 0 0-2.71-12.32 6.56 6.56 0 0 1-4.24-.67 17.07 17.07 0 0 1-5.64-4.77 15.26 15.26 0 0 1-1.06-1.39 6.93 6.93 0 0 1-1-.65 6.35 6.35 0 0 1-1.3.36 5.59 5.59 0 0 1-3.55 2.39c-1.06.26-2.11.56-3.17.84a15.63 15.63 0 0 0-2.68 6.6 6.59 6.59 0 0 1 .33 2.06c0 2.51.08 5.11.34 7.61a19.28 19.28 0 0 0 7.07 10.31 21.19 21.19 0 0 1 3.32 0 11.81 11.81 0 0 1 4.59 1.78l.63.21.4-.07a10.4 10.4 0 0 0 6.14-4.47Z"/>
      <path class="cls-1" d="M1056.49 417.5c8.89-23.45 16.11-47.35 12.61-72.93-2.36-17.21-10.1-31.23-25.93-40.62-.54 2-1 3.44-1.32 4.9-3.87 16.72-6.55 33.82-11.77 50.11-16.45 51.33-43.09 97.65-72.47 142.46-20.89 31.86-43.36 62.52-66.9 92.34q-8.88 10.24-18.31 20.17c-13 13.58-24.68 29.81-37.48 44.46-7.42 8.5-14.17 17.63-21.16 26.51-7.76 8.48-15.63 16.86-23.4 25.34v1c-32.55 33.52-65.51 66.69-99.2 99-35.67 34.26-35.59 36.58-69.7 68.25q-3.29 3-6.82 5.79L485.37 984.86c-.44.32-.89.63-1.33 1-51.31 39.23-104.18 76.15-160.67 107.67-42.11 23.47-85.37 44.3-132.37 56.33-10 2.58-20.32 4.26-30.91 6.43.89 1.34 1.3 2.09 1.83 2.74 15.31 18.81 36 23.44 58.78 21.7 27-2.06 52.18-11.16 76.71-22 54.73-24.22 104.62-56.68 153.39-91q12.56-8.84 25.06-17.73l.07.07a4.62 4.62 0 0 1 3.48-1.41 4.74 4.74 0 0 1 4.82 5.16 112.66 112.66 0 0 1 10.87 4c40 17.88 75.9 46 122.15 47.75a2 2 0 0 1 1 .33c25.93 17.14 54.89 5.57 82.34 8 29.13 2.58 56.21-6.09 84-15.58 41.61-14.22 78.83-32.85 113.23-61.09 42.58-35 67-58.33 89.92-105.08 16.55-33.68 32.52-67.57 34.53-106a2 2 0 0 1 .38-1.07c17.93-24.32 4.69-52.06 8-78 3.4-26.54-8-50.71-14.53-75.8-9.43-36.37-27.12-68.54-46.12-100.23a2 2 0 0 1 .09-2.23l.54-.74-.55-.75q8.83-12.32 17.39-24.84c26.96-39.49 51.99-80.06 69.02-124.99Zm-82.93 195.75a2 2 0 0 1 2 1.09c30.75 58.95 41.48 122.08 38.47 188a19.52 19.52 0 0 1-2.6 8.69c-9.17 16.25-1 38.41-18.34 53.09-8 6.81-8.92 21.73-14 32.53-11.62 24.8-22.58 46.74-55 55.3-19.54 5.17-35.39 24.27-51.36 38.65a17.71 17.71 0 0 0-5.87 12.47c-.53 14-6.67 20.85-21.33 25.73-20.41 6.81-35.37 22.73-39.23 45.83a2 2 0 0 1-1.06 1.46c-69.88 34.19-214.24 34.59-301.79-38.09a2 2 0 0 1 0-3.11c108.71-90.27 218.86-178.63 314.1-284.43 8.22-8.75 16.45-17.46 24.45-26.4q11.81-13 23.4-26.23l19.7 11.44a30.62 30.62 0 0 1 15.24 26.49V804a2 2 0 0 0 3.2 1.64h.06a2 2 0 0 1 3 .82l6.26 14.18a5.48 5.48 0 0 0 9.34 1.12c9.74-12.61 17.79-21 21.22-31 15.74-45.68 12.76-72.62-32.69-112.07a2 2 0 0 1-.68-1.47c0-9.08-.14-18.73.11-28.37a18.17 18.17 0 0 1 1.29-5.28l3.87-4.75c5.4 2.37 11.1 3.95 14.47 7.65 7.08 7.75 14.46 11.74 25.25 9.19a9.89 9.89 0 0 0 7.5-9.67v-30.1a2.06 2.06 0 0 1 1.92-2Z"/>
      <path class="cls-1" d="M812.36 418.07C843.3 396 875 375.13 909.52 358.92c35.47-16.68 71.53-31.57 113-29.1 1.4-6.3 2.44-13 4.45-19.47s-.45-7.51-6.16-8c-21.94-1.72-41.85 5-61.18 14.13-40.52 19.14-77 44.84-113.42 70.57-13.86 9.78-27.54 19.83-41.2 29.7 2.27 5.42 4.61 3.25 7.35 1.32ZM193.9 1044.4c-6.43 31.39-14.91 62.11-31.86 89.79l-6.55 10.65c12-2.7 22.09-4.7 32-7.41a12 12 0 0 0 6.92-5.65c4.52-9.77 8.74-19.72 12.34-29.86 18.69-52.58 24.56-107.47 28.2-162.64 1.77-26.75 2.28-53.58 3.16-80.38 2.17-66.14 4.6-132.27 6.18-198.41.71-30.24 14.67-51.44 40-66.39 24.41-14.4 51.78-17 79-20.07 4.57-.51 9.15-1 13.72-1.5a40.32 40.32 0 0 0 4.18-14.9c-.16-.1-.33-.2-.48-.31l-12.65-1.25c-21.86-2.18-43.87-3.75-64.71-11.67-21.95-8.34-41-20.37-52.86-41.5-6.78-12.11-9.08-25.24-8.4-39.16l14.14-.65-10-26.27c10.69-1.32 10.66-1.32 10.66-11.33q0-81.14.09-162.25c0-5.48-.72-10.34-4.95-14.07-4-3.49-4.58-7.86-4.56-12.86.12-34-.81-68 .33-101.89.76-22.73-2.48-44.18-11.45-64.94a72.55 72.55 0 0 1-3.82-11c-1.38-5.39-3-10.85-3.31-16.35-.64-12.08-.39-24.22-.82-36.32-.07-2-1.75-3.88-2.7-5.82l-3.22.79v23.14c.12 13.81.3 27.5-5.46 40.67-4.23 9.65-7.41 19.8-10.59 29.87a50.35 50.35 0 0 0-2.56 14.5c-.29 42.83-.2 85.66-.58 128.49 0 3.9-2 8.25-4.24 11.52-3 4.26-4.66 8.28-4.64 13.62.15 55.59.05 111.19.05 166.79 0 2.09.33 4.18.52 6.4l11.1.83c-3.54 9.15-6.75 17.47-10.21 26.42l12.88.7c2.1 14.86-3.36 34.37-12.63 46.69-16.47 21.89-39.29 34.37-65.32 38.71-34 5.68-68.49 8.32-102.79 12.15-9.32 1-18.7 1.67-28 2.49 6.29 1.61 12.51 2.15 18.71 2.83q45.38 5 90.74 10.06c21.24 2.37 41.59 7.58 59.83 19.25 19.85 12.7 33 30.38 34.72 54.12 2.63 37.09 4.71 74.27 5.18 111.43.64 51 .08 102-.94 153.06a717.89 717.89 0 0 1-14.35 129.88Z"/>
      <path class="cls-1" d="M187 437.8c-.25-1.14-.44-2.28-.6-3.43s-.26-2.29-.34-3.44c0-.76-.09-1.53-.11-2.3v-1.15c-.05-2.3 0-4.6.07-6.9v-1.14c.07-2.3.13-4.59.13-6.87 0-14-.14-28-.19-42v-28.08q0-7 .06-14 .11-14 .38-28c.24-12-4.1-21.66-11.15-32-.18.47-.36.95-.55 1.42-.56 1.43-1.18 2.85-1.82 4.27l-.64 1.42-1 2.21c-.3.68-.6 1.37-.89 2.05a49.43 49.43 0 0 0-2.06 5.7 24.9 24.9 0 0 0-1 5.74c-.37 9.88-.44 19.76-.42 29.65v9.89l.06 9.89c.05 9.89 0 19.77-.23 29.66-.33 12.3.43 24.65.62 37v4.98c0 4.94-.12 9.87-.48 14.79q-.27 3.69-.73 7.38c-.2 1.63-.44 3.27-.72 4.9-.55 3.27-1.24 6.53-2.1 9.79h28.19A34.34 34.34 0 0 1 187 437.8ZM290.35 449.11a34.82 34.82 0 0 1-3.75-7.22c-.3-.81-.58-1.62-.82-2.44s-.46-1.62-.64-2.44c-.28-1.22-.5-2.45-.67-3.68-.11-.82-.21-1.64-.28-2.46s-.13-1.64-.17-2.47-.07-1.64-.08-2.47V421c0-.82 0-1.65.07-2.47.09-2.87.2-5.74.19-8.59q-.14-28.85-.13-57.71t.19-57.71a29.93 29.93 0 0 0-.83-7.12 33.7 33.7 0 0 0-1-3.34c-.61-1.82-1.34-3.6-2.14-5.38-1-2.26-2.13-4.52-3.25-6.84-.66-1.37-1.32-2.76-1.95-4.2-1.5 2.73-2.88 5.39-4.11 8-.93 2-1.76 3.94-2.5 5.92-.49 1.31-.93 2.64-1.32 4-.2.67-.38 1.34-.55 2a46.78 46.78 0 0 0-1.44 12.73q.42 19 .49 37.93v12.64q0 25.29-.4 50.58v1.49c0 9.38 1.1 18.89.26 28.35-.05.55-.1 1.11-.17 1.66-.1.94-.23 1.88-.38 2.82a51.4 51.4 0 0 1-1.76 7.44c-.32 1-.67 2-1.07 3s-.82 2-1.29 2.95ZM340.89 708.12c-4.22 23.72-2.56 34.75-.94 69.64 4.88 104.83 19.48 114.15 48.38 162.85 10.29 17.33 15.07 21.61 31.2 41.1 3.38 4.08.86 7.94 9.41 4.52a37.79 37.79 0 0 1 6.37-5.32l1-3.28c.2-2.26-1.82-4-3.27-5.76-38.64-46.38-61.34-98-69.67-155-1.24-8.5 9.45-13.53 15-7a32.28 32.28 0 0 0 6.8 6.16c6.27 4.22 14.52-1.38 13.13-8.81-2.46-13.16-4.77-25.5-7.1-37.91a8.6 8.6 0 0 1 2.87-8.11l43.48-37.2a8.58 8.58 0 0 0-4.22-15l-7.56-1.21A8.53 8.53 0 0 1 419 702c-1.17-3.55-2.35-7.06-4.63-9.58-3.55-3.91-8.12-6.89-13.21-10.4a8.59 8.59 0 0 1-3.37-9.46c8.68-30.4 15.41-58.81 25.54-85.95 20.61-55.22 68.36-84.73 114.64-115 14.31-9.36 29.29-17.67 43.14-14.33a9.43 9.43 0 0 1 3.15 1.42L613.1 479a8.48 8.48 0 0 1 3.55 6.08c.33 3.24.73 6.54-.52 9-4.75 9.4-10.4 18.34-16.83 29a8.68 8.68 0 0 1-8.62 4.1c-8.71-1.2-17.52-2.07-25.85-4.57-41.7-12.5-83.77 4.45-103.16 42.57-2 3.88-3.64 7.91-5.27 12a25.15 25.15 0 0 0 .72 20.22l2.13 4.38a18.49 18.49 0 0 0 16.63 10.42h.49a16.06 16.06 0 0 0 13.34-7.3c10.32-15.51 26.69-24.34 38.22-36.09a21.86 21.86 0 0 1 15.62-6.5H548a15.29 15.29 0 0 1 15.29 15.29v8.63a15.68 15.68 0 0 1-5 11.48 71.21 71.21 0 0 0-9.18 9.83 22.51 22.51 0 0 0-1.54 2.42 15.21 15.21 0 0 1-20.77 6.1l-.69-.39a8.6 8.6 0 0 0-10.75 1.87L465 675.78a16.16 16.16 0 0 0-3.9 9.89c-.4 9.34-1.84 20.49 10.58 28.57a15.29 15.29 0 0 0 7.69 2.39l9.21.4a18.31 18.31 0 0 1 10 3.52l7.46 5.48a28.25 28.25 0 0 1 10.43 30.57c-10 34.86-14.24 69.11-12.14 105.37a17.63 17.63 0 0 0 6.23 12.43l10.91 9.2a13.6 13.6 0 0 0 19.71-2.31l2.61-3.53a21.65 21.65 0 0 1 27.9-6.09 8.54 8.54 0 0 0 9.85-1.13c26.54-23.89 53.23-47.91 78.9-71a17.62 17.62 0 0 0 5.15-18l-2.43-8.54a18.9 18.9 0 0 1 12-23c17.76-6.35 38.77-19.54 52.25-31.9a25 25 0 0 0 7-26.24c-3.66-11-11.41-20.1-13.36-32.22-1.73-10.7 5.78-19.47 16.62-19.47h13.9a8.78 8.78 0 0 0 4.05-1l29.15-15a8.58 8.58 0 0 1 11.72 4l2.63 5.64a19.2 19.2 0 0 0 7.15 8.58l2.35 1c3.87 1.69 7.8-.1 10.83-3 6.17-6 5.49-6.13 6.17-6.95 29.4-35.52 56.79-69.86 89-108.74 3.7-4.48 7.12-10.37 1.75-12.56-2.84-1.16-8.93-7.93-11.08-9.6-6.77-5.25-13.21-8.38-20.2-13.2-12.13-8.37-22-17.17-35-24.26l-28.22-13.78-32.53-12.16C739.42 426.71 706.58 423 661.09 423c-2 0-62.66 10.74-64.54 11.35-35.45 11.41-25.21 2.29-38.68 8.38a386 386 0 0 0-148.42 117.11c-16.43 21.25-31.6 44.24-42.84 68.52-11.69 25.22-20.86 52.45-25.72 79.76Z"/>
      <path d="M444.6 1017.15a344.45 344.45 0 0 0 240 97c190.87 0 345.6-154.73 345.6-345.6S875.5 422.92 684.63 422.92 339 577.65 339 768.53c0 89.72 30.78 158.85 86.85 220.29" style="fill:none;stroke:#e01500;stroke-miterlimit:10;stroke-width:8px"/>
    </g>
  </g>
</svg>
